<svg id="Layer_1" data-name="Layer 1" xmlns="http://www.w3.org/2000/svg" viewBox="0 0 250 124"><defs><style>.cls-1,.cls-4{fill:#fff;}.cls-1,.cls-2{stroke:#1f2e8d;stroke-linecap:round;stroke-miterlimit:10;stroke-width:6px;}.cls-2{fill:none;}.cls-3{fill:#1f2e8d;}.cls-5{fill:#6f7edf;}</style></defs><path class="cls-1" d="M143.82,102.4h21a7.54,7.54,0,0,0,7.53-7.54V37.56A7.53,7.53,0,0,0,164.79,30H66.53A7.53,7.53,0,0,0,59,37.56v57.3a7.54,7.54,0,0,0,7.53,7.54H87.65"/><path class="cls-2" d="M67.25,38.69l46.17,27.85a4.3,4.3,0,0,0,4.48,0l46.18-27.85"/><circle class="cls-3" cx="169.09" cy="33.63" r="21.91"/><polygon class="cls-4" points="176.29 21.85 169.09 29.05 161.9 21.85 157.44 26.32 164.63 33.51 157.19 40.95 161.65 45.41 169.09 37.97 176.53 45.41 181 40.95 173.56 33.51 180.75 26.32 176.29 21.85"/><rect class="cls-5" x="102.81" y="80.26" width="35.95" height="3.37" rx="1.69"/><circle class="cls-5" cx="96.07" cy="81.94" r="1.69"/><rect class="cls-5" x="102.81" y="89.8" width="35.95" height="3.37" rx="1.69"/><circle class="cls-5" cx="96.07" cy="91.49" r="1.69"/><rect class="cls-5" x="102.81" y="99.35" width="35.95" height="3.37" rx="1.69"/><circle class="cls-5" cx="96.07" cy="101.04" r="1.69"/><rect class="cls-5" x="102.81" y="108.9" width="35.95" height="3.37" rx="1.69"/><circle class="cls-5" cx="96.07" cy="110.59" r="1.69"/></svg>