<svg id="Layer_1" data-name="Layer 1" xmlns="http://www.w3.org/2000/svg" viewBox="0 0 250 124"><defs><style>.cls-1{fill:#1f2e8d;}</style></defs><path class="cls-1" d="M65.07,43.83H33.54V29.28H84.28V40.83L61.48,94H43.15Z"/><path class="cls-1" d="M90.09,81c28-20.28,33.27-24.74,33.27-31.14,0-4.46-4.17-6.79-9.21-6.79-6.89,0-12.32,2.71-17,7.08L88,39.08c6.88-7.57,17.17-10.77,26.19-10.77,15.23,0,26.19,8.54,26.19,21.54,0,9.89-7.08,18.33-24.45,29.58h24.93V94H90.09Z"/><path class="cls-1" d="M163.41,29.51c10.2,0,16.77,7.05,16.77,16s-6.57,15.82-16.77,15.82c-10,0-16.48-7-16.48-15.82S153.41,29.51,163.41,29.51Zm0,8.76c-3.62,0-6.38,2.48-6.38,7.24,0,4.58,2.76,7.05,6.38,7.05S170,50.09,170,45.51C170,40.75,167.13,38.27,163.41,38.27Zm34.3-7.81H206L165.32,94h-8.2Zm1.62,32.87c10.1,0,16.67,7,16.67,16s-6.57,15.82-16.67,15.82-16.48-7-16.48-15.82S189.32,63.33,199.33,63.33Zm0,8.76c-3.72,0-6.38,2.48-6.38,7.24s2.66,7,6.38,7,6.57-2.38,6.57-7S203,72.09,199.33,72.09Z"/></svg>