<svg id="Layer_1" data-name="Layer 1" xmlns="http://www.w3.org/2000/svg" viewBox="0 0 250 124"><defs><style>.cls-1{fill:#1f2e8d;}.cls-2,.cls-3{fill:none;stroke-linecap:round;stroke-miterlimit:10;}.cls-2{stroke:#1f2e8d;stroke-width:4px;}.cls-3{stroke:#6f7edf;stroke-width:5px;}.cls-4{fill:#fff;}</style></defs><path class="cls-1" d="M165.45,40.18v7.93H63V40.18a4.77,4.77,0,0,1,4.77-4.77h92.9A4.77,4.77,0,0,1,165.45,40.18Z"/><path class="cls-2" d="M165.45,48.11v55.58a4.77,4.77,0,0,1-4.78,4.77H67.77A4.77,4.77,0,0,1,63,103.69V40.18a4.77,4.77,0,0,1,4.77-4.77h92.9a4.77,4.77,0,0,1,4.78,4.77Z"/><line class="cls-2" x1="165.45" y1="48.11" x2="63" y2="48.11"/><path class="cls-1" d="M103.59,97.56a15.82,15.82,0,0,0-31.63,0Z"/><circle class="cls-1" cx="87.77" cy="69.76" r="7.91"/><line class="cls-3" x1="113.66" y1="64.24" x2="156.21" y2="64.24"/><line class="cls-3" x1="113.66" y1="74.97" x2="156.21" y2="74.97"/><line class="cls-3" x1="113.66" y1="85.7" x2="156.21" y2="85.7"/><line class="cls-3" x1="113.66" y1="96.43" x2="156.21" y2="96.43"/><circle class="cls-1" cx="165.17" cy="37.37" r="21.83"/><polygon class="cls-4" points="172.34 25.63 165.17 32.8 158 25.63 153.55 30.08 160.72 37.24 153.3 44.66 157.75 49.11 165.17 41.69 172.58 49.11 177.03 44.66 169.62 37.24 176.78 30.08 172.34 25.63"/></svg>