<svg xmlns="http://www.w3.org/2000/svg" viewBox="0 0 143 143"><defs><style>.cls-1{fill:#3d52d5;}.cls-2{fill:#fff;}</style></defs><g id="Layer_2" data-name="Layer 2"><g id="Layer_1-2" data-name="Layer 1"><circle class="cls-1" cx="71.5" cy="71.5" r="71.5"/><path class="cls-2" d="M33.66,60.36H14v-9H45.61v7.18L31.42,91.57H20Z"/><path class="cls-2" d="M54.54,79.5a15.66,15.66,0,0,0,10.56,4c4.41,0,6.58-2.35,6.58-5,0-2.84-2.11-4.89-6.28-4.89a11.12,11.12,0,0,0-8,3l-7.19-1.75V51.31H79.47v8.75H60.27v8.27a14,14,0,0,1,9-3.26,12.63,12.63,0,0,1,13,13c0,8.69-6.58,14.18-17,14.18-7.12,0-12.49-2.17-16.23-5.85Z"/><path class="cls-2" d="M95.64,50.71c6.46,0,10.63,4.46,10.63,10.14s-4.17,10-10.63,10-10.44-4.41-10.44-10S89.31,50.71,95.64,50.71Zm0,5.55c-2.29,0-4,1.57-4,4.59s1.75,4.46,4,4.46,4.17-1.57,4.17-4.46S98,56.26,95.64,56.26Zm21.73-4.95h5.25L96.85,91.57H91.66Zm1,20.82c6.39,0,10.56,4.47,10.56,10.14s-4.17,10-10.56,10S108,87.89,108,82.27,112.06,72.13,118.4,72.13Zm0,5.56c-2.36,0-4.05,1.57-4.05,4.58s1.69,4.47,4.05,4.47,4.16-1.51,4.16-4.47S120.75,77.69,118.4,77.69Z"/></g></g></svg>