<svg xmlns="http://www.w3.org/2000/svg" viewBox="0 0 143 143"><defs><style>.cls-1{fill:#3d52d5;}.cls-2{fill:#fff;}</style></defs><g id="Layer_2" data-name="Layer 2"><g id="Layer_1-2" data-name="Layer 1"><circle class="cls-1" cx="71.5" cy="71.5" r="71.5"/><path class="cls-2" d="M32.34,50.79a20.19,20.19,0,0,1,12.2,3.85L40,62.21a11.1,11.1,0,0,0-7.69-2.64A9.28,9.28,0,0,0,23,69.25v.48a12.59,12.59,0,0,1,9.86-4.63c7.21,0,13.88,4.51,13.88,13,0,8.24-6.67,14.07-16,14.07C18,92.21,12.5,83,12.5,71.53,12.5,58.73,20.19,50.79,32.34,50.79ZM29.69,73.57A9.67,9.67,0,0,0,23,76.28c.3,3.31,2.22,7.15,7.27,7.15,3.91,0,6-2.46,6-4.87C36.24,75,33,73.57,29.69,73.57Z"/><path class="cls-2" d="M66.78,50.79C78.5,50.79,84,60.89,84,71.47S78.5,92.21,66.78,92.21,49.59,82.05,49.59,71.47,55.06,50.79,66.78,50.79Zm0,9.14c-4.81,0-6.73,4.45-6.73,11.54s1.92,11.6,6.73,11.6,6.73-4.51,6.73-11.6S71.59,59.93,66.78,59.93Z"/><path class="cls-2" d="M97.32,50.79c6.43,0,10.58,4.45,10.58,10.1s-4.15,10-10.58,10-10.4-4.39-10.4-10S91,50.79,97.32,50.79Zm0,5.53c-2.29,0-4,1.56-4,4.57s1.74,4.45,4,4.45,4.15-1.56,4.15-4.45S99.66,56.32,97.32,56.32ZM119,51.39h5.23L98.52,91.49H93.35Zm1,20.74c6.37,0,10.52,4.45,10.52,10.1s-4.15,10-10.52,10-10.4-4.39-10.4-10S113.67,72.13,120,72.13Zm0,5.53c-2.34,0-4,1.56-4,4.57s1.69,4.45,4,4.45,4.15-1.5,4.15-4.45S122.32,77.66,120,77.66Z"/></g></g></svg>